<?xml version="1.0" standalone="no"?>
<!DOCTYPE svg PUBLIC "-//W3C//DTD SVG 20010904//EN"
 "http://www.w3.org/TR/2001/REC-SVG-20010904/DTD/svg10.dtd">
<svg version="1.0" xmlns="http://www.w3.org/2000/svg"
 width="500.000000pt" height="500.000000pt" viewBox="0 0 500.000000 500.000000"
 preserveAspectRatio="xMidYMid meet">

<g transform="translate(0.000000,500.000000) scale(0.100000,-0.100000)"
fill="#000000" stroke="none">
<path d="M2638 3553 c-28 -33 -37 -59 -54 -164 -21 -132 -14 -263 25 -493 22
-128 34 -173 49 -188 19 -20 19 -20 56 13 50 44 158 180 207 261 47 77 118
244 149 348 23 76 18 99 -21 121 -35 18 -65 2 -132 -72 l-66 -72 -11 44 c-29
107 -111 219 -160 219 -15 0 -34 -8 -42 -17z m78 -35 c75 -66 107 -180 85
-296 -14 -69 11 -50 97 77 56 83 85 117 105 124 46 15 51 -1 34 -87 -19 -94
-76 -223 -150 -341 -60 -97 -155 -215 -192 -239 -23 -15 -23 -15 -39 57 -57
249 -71 461 -40 599 19 83 40 138 54 138 5 0 26 -15 46 -32z"/>
<path d="M2090 3423 c-19 -24 -21 -36 -16 -90 12 -121 44 -212 132 -382 47
-91 91 -172 96 -178 23 -29 45 -13 76 55 71 153 92 248 99 440 5 127 4 144
-12 162 -40 44 -83 15 -121 -81 -28 -71 -28 -71 -44 -48 -31 48 -106 122 -137
135 -44 19 -48 18 -73 -13z m87 -21 c46 -25 101 -99 112 -151 6 -29 11 -59 11
-66 0 -8 4 -15 9 -15 10 0 18 23 51 145 25 89 34 105 61 105 66 0 42 -304 -41
-517 -51 -131 -48 -131 -125 1 -114 197 -155 315 -155 447 l0 78 29 -9 c15 -4
37 -13 48 -18z"/>
<path d="M1969 2701 c-8 -23 -17 -31 -34 -31 -13 0 -27 -4 -30 -10 -4 -6 5
-10 20 -10 l26 0 -2 -82 c-1 -74 -6 -91 -40 -160 -21 -42 -44 -80 -50 -83 -8
-6 -10 27 -8 121 l4 129 -47 3 c-56 4 -83 -9 -102 -46 -16 -31 -24 -112 -12
-130 13 -21 40 -13 68 20 l27 33 1 -30 c0 -43 18 -101 35 -115 25 -21 52 -1
87 66 l35 66 7 -41 c9 -60 26 -91 54 -98 33 -8 53 5 77 53 11 21 21 41 22 43
2 2 12 -8 24 -22 26 -34 71 -36 98 -4 11 12 29 33 41 47 l21 25 -6 -52 c-4
-32 -3 -53 3 -53 11 0 29 87 38 188 6 64 9 72 28 73 17 0 16 3 -8 11 -36 13
-46 0 -46 -65 0 -27 -5 -58 -11 -70 -17 -32 -89 -117 -100 -117 -28 0 -47 124
-29 192 6 22 17 38 25 38 22 0 18 -43 -7 -75 -20 -25 -20 -27 -2 -24 27 6 58
72 45 97 -15 28 -40 35 -67 17 -34 -22 -47 -52 -55 -121 -7 -69 -52 -178 -71
-172 -7 3 -16 20 -21 39 -10 36 -3 281 8 299 3 5 37 10 76 10 39 0 69 4 69 10
0 6 -30 10 -69 10 -64 0 -70 2 -73 22 -5 36 -37 35 -49 -1z m-169 -156 c0 -25
-64 -145 -77 -145 -16 0 -16 5 -2 69 15 71 79 132 79 76z"/>
<path d="M1266 2688 c-3 -18 -9 -99 -12 -180 -7 -142 -6 -148 12 -148 17 0 22
11 31 78 16 104 39 176 67 209 l23 27 13 -24 c7 -13 18 -79 23 -147 12 -143
31 -167 40 -50 9 124 63 233 96 193 7 -8 13 -69 15 -152 2 -77 7 -147 11 -156
12 -30 49 -22 69 15 l18 32 -24 -29 c-43 -51 -50 -31 -46 133 3 163 -2 181
-53 181 -20 0 -35 -9 -53 -33 -15 -19 -26 -39 -26 -45 0 -28 -17 -8 -28 33
-20 76 -72 81 -109 12 l-18 -32 -3 58 c-3 48 -6 57 -21 57 -13 0 -20 -10 -25
-32z"/>
<path d="M3461 2668 c-5 -29 -11 -62 -13 -73 -2 -13 -14 -21 -36 -26 -48 -10
-79 -44 -93 -103 -13 -58 -31 -97 -52 -115 -24 -19 -30 2 -28 106 1 109 -8
136 -47 131 -19 -2 -36 -17 -59 -52 l-33 -48 0 56 c0 48 -3 56 -19 56 -24 0
-31 -19 -31 -81 0 -37 -9 -68 -35 -119 -53 -105 -58 -101 -54 46 l4 129 -47 3
c-76 5 -107 -24 -122 -113 -4 -22 -19 -60 -33 -84 -24 -41 -27 -43 -39 -26
-10 13 -14 48 -13 113 1 72 -3 98 -14 109 -26 26 -63 8 -94 -45 l-28 -47 -3
58 c-3 49 -6 57 -22 57 -12 0 -20 -7 -21 -17 -3 -107 -18 -185 -43 -227 -15
-25 -33 -46 -41 -46 -21 0 -29 78 -16 171 15 115 15 119 -13 119 -26 0 -29
-10 -42 -142 -15 -148 63 -219 127 -115 19 31 19 31 25 10 13 -48 37 -22 58
61 24 97 66 174 87 160 5 -3 9 -47 9 -97 0 -109 6 -134 31 -142 26 -9 54 10
69 45 9 22 16 28 23 21 19 -19 41 -12 69 21 l27 33 1 -30 c0 -43 18 -101 35
-115 24 -20 51 -2 81 53 l29 52 3 -35 c4 -41 17 -59 32 -44 6 6 19 44 31 85
11 41 32 94 46 118 24 41 27 43 39 26 9 -12 12 -47 11 -110 -2 -94 8 -125 40
-125 16 0 58 39 65 61 4 12 7 12 21 1 29 -25 60 -10 84 38 l21 45 6 -40 c13
-88 32 -149 49 -159 27 -17 50 4 68 65 10 30 17 48 18 42 2 -20 48 -45 71 -38
27 9 50 55 50 102 0 39 0 39 38 36 33 -2 34 -2 10 6 -14 5 -45 24 -68 42 l-42
34 -24 -28 c-21 -25 -42 -82 -74 -204 -6 -24 -14 -43 -19 -43 -11 0 -21 137
-15 221 2 38 6 101 8 139 5 68 4 70 -19 70 -21 0 -25 -7 -34 -52z m-551 -123
c0 -25 -64 -145 -77 -145 -16 0 -16 5 -2 69 15 71 79 132 79 76z m530 11 c0
-10 -62 -152 -70 -160 -14 -14 -13 80 1 107 17 33 41 57 56 57 7 0 13 -2 13
-4z m230 -72 c13 -40 7 -91 -15 -120 -13 -16 -16 -17 -25 -4 -21 32 -6 160 19
160 5 0 15 -16 21 -36z"/>
<path d="M3496 2204 c-3 -26 -6 -82 -6 -125 0 -75 -1 -79 -22 -80 -15 0 -18
-2 -8 -6 29 -10 40 -37 40 -99 0 -65 7 -78 34 -68 12 5 14 15 9 50 -4 30 -2
44 6 44 6 0 11 -4 11 -10 0 -5 14 -25 31 -45 41 -46 83 -46 114 1 l21 31 21
-23 c34 -38 75 -32 114 17 l32 41 14 -26 c10 -19 22 -26 42 -26 23 0 31 7 46
40 10 22 21 40 25 40 4 0 10 -26 12 -58 8 -82 31 -132 61 -132 17 0 28 8 35
28 18 44 44 154 38 160 -6 6 -8 2 -36 -95 -36 -124 -43 -95 -38 142 4 204 4
215 -14 215 -21 0 -27 -12 -43 -89 -10 -51 -13 -56 -45 -64 -43 -11 -64 -29
-81 -70 -18 -45 -90 -138 -103 -134 -43 14 -49 227 -6 227 16 0 12 -53 -6 -78
-8 -12 -11 -22 -5 -22 16 0 51 51 51 76 0 26 -24 54 -46 54 -40 0 -89 -93 -83
-158 4 -41 -10 -88 -31 -107 -17 -15 -22 -16 -36 -4 -25 21 -88 123 -77 126
34 12 82 46 107 77 24 29 30 46 30 87 1 42 -3 54 -23 70 -34 28 -58 24 -98
-16 -19 -19 -37 -35 -39 -35 -2 0 -4 20 -4 45 0 37 -3 45 -19 45 -14 0 -20
-10 -25 -46z m167 -31 c19 -65 -21 -151 -81 -174 -40 -15 -47 1 -34 72 22 118
93 181 115 102z m352 -133 c-18 -56 -54 -135 -64 -138 -16 -5 -14 62 3 102 19
46 75 79 61 36z"/>
<path d="M1661 2200 c-6 -20 -17 -30 -30 -30 -11 0 -23 -4 -26 -10 -3 -6 4
-10 18 -10 l24 0 -4 -97 c-4 -104 -22 -170 -52 -197 -28 -25 -33 -9 -32 100 1
111 -8 137 -47 132 -19 -2 -36 -17 -59 -52 l-33 -48 0 56 c0 48 -3 56 -19 56
-25 0 -31 -19 -31 -95 0 -70 -35 -199 -51 -189 -7 4 -8 51 -3 135 6 122 6 129
-12 129 -14 0 -27 -20 -52 -83 -63 -155 -85 -153 -80 6 4 95 3 97 -19 97 -22
0 -23 -3 -23 -96 0 -98 8 -127 35 -138 27 -10 55 13 80 65 l22 49 5 -85 c3
-61 9 -90 20 -102 22 -21 46 -10 61 27 10 23 16 27 25 18 18 -18 30 0 53 83
11 41 32 94 46 118 24 41 27 43 39 26 9 -12 12 -47 11 -110 -2 -100 9 -128 47
-123 12 2 32 20 46 42 l25 38 6 -31 c20 -97 97 -110 132 -23 14 35 18 38 46
34 17 -2 31 0 31 4 0 5 9 20 19 33 l18 24 11 -63 c6 -34 17 -68 23 -76 18 -22
47 -17 65 12 12 17 19 21 24 13 9 -13 42 70 59 151 20 88 22 89 46 25 l23 -60
-39 -36 c-44 -41 -47 -51 -19 -79 25 -25 61 -26 91 -1 20 16 24 28 22 65 -1
43 1 47 33 62 19 9 33 19 30 21 -2 2 -18 -3 -36 -12 -18 -9 -33 -15 -34 -13
-1 2 -15 31 -31 65 -16 35 -39 72 -51 84 -26 24 -23 29 -49 -85 -16 -69 -81
-206 -98 -206 -6 0 -7 53 -2 130 l7 130 -46 0 c-25 0 -56 -5 -70 -11 -25 -12
-56 -63 -56 -93 0 -24 -39 -123 -58 -147 -17 -20 -19 -20 -32 -3 -12 13 -15
46 -13 145 1 71 4 142 8 159 7 30 7 30 76 30 39 0 69 4 69 10 0 6 -30 10 -70
10 -68 0 -70 1 -70 25 0 37 -35 33 -49 -5z m252 -144 c7 -17 -58 -156 -73
-156 -28 0 -2 117 34 153 21 21 32 22 39 3z m247 -164 c0 -46 -15 -65 -42 -51
-25 13 -23 54 4 73 33 23 38 20 38 -22z"/>
<path d="M1016 2179 c-3 -17 -6 -55 -6 -83 0 -28 -3 -67 -6 -87 -6 -34 -9 -37
-46 -42 -22 -3 -51 -16 -64 -28 -32 -30 -33 -82 -2 -103 28 -20 51 -20 93 0
30 14 46 37 84 122 3 7 5 67 3 133 -3 117 -4 119 -26 119 -18 0 -25 -7 -30
-31z m-20 -239 c-3 -11 -9 -30 -12 -42 -15 -54 -64 -76 -84 -39 -16 30 -12 50
15 76 31 32 89 36 81 5z"/>
<path d="M2430 2135 c-7 -9 -13 -50 -14 -104 -1 -72 2 -93 16 -107 27 -27 61
-11 91 43 l27 48 -2 -54 c-3 -52 -5 -56 -48 -86 -59 -42 -87 -88 -72 -120 6
-14 23 -27 37 -31 51 -13 105 48 125 140 8 36 20 59 45 82 19 17 35 38 35 45
0 7 -12 1 -28 -14 -15 -15 -32 -27 -36 -27 -4 0 -4 29 -1 65 9 78 1 115 -23
115 -12 0 -23 -13 -31 -37 -30 -86 -64 -153 -79 -153 -12 0 -14 16 -10 105 5
107 -2 126 -32 90z m104 -292 c-11 -48 -38 -98 -56 -101 -42 -8 -24 79 24 112
32 23 39 20 32 -11z"/>
<path d="M2861 2104 c-30 -21 -51 -73 -51 -124 0 -121 90 -171 152 -85 l25 36
5 -46 c6 -53 9 -58 30 -50 9 4 20 31 27 63 22 97 70 190 92 176 5 -3 9 -47 9
-97 0 -108 6 -134 30 -142 38 -12 63 16 95 106 8 22 10 39 6 39 -5 0 -12 -12
-16 -27 -3 -16 -18 -48 -32 -72 -24 -41 -27 -43 -39 -26 -10 13 -14 48 -13
113 1 72 -3 98 -14 109 -26 26 -63 8 -94 -45 l-28 -47 -3 58 c-2 47 -6 57 -21
57 -14 0 -20 -11 -25 -46 -3 -26 -6 -58 -6 -71 0 -13 -15 -44 -32 -68 -33 -45
-53 -59 -68 -50 -14 8 -32 109 -21 113 27 9 60 46 66 74 6 26 3 35 -15 50 -27
22 -30 22 -59 2z m49 -40 c0 -14 -5 -34 -10 -45 -14 -24 -43 -26 -36 -1 3 9 8
29 12 45 8 35 34 36 34 1z"/>
<path d="M1098 1973 c7 -3 16 -2 19 1 4 3 -2 6 -13 5 -11 0 -14 -3 -6 -6z"/>
<path d="M1111 1433 c1 -32 4 -46 6 -31 3 22 10 27 36 30 25 2 32 8 33 26 1
18 1 19 -3 2 -6 -28 -63 -29 -63 -1 0 14 8 21 28 24 25 4 25 4 -5 6 l-33 1 1
-57z"/>
<path d="M1268 1483 c6 -2 18 -2 25 0 6 3 1 5 -13 5 -14 0 -19 -2 -12 -5z"/>
<path d="M1388 1483 c12 -2 30 -2 40 0 9 3 -1 5 -23 4 -22 0 -30 -2 -17 -4z"/>
<path d="M1520 1486 c0 -2 11 -6 25 -8 13 -3 22 -1 19 3 -5 9 -44 13 -44 5z"/>
<path d="M1648 1483 c6 -2 18 -2 25 0 6 3 1 5 -13 5 -14 0 -19 -2 -12 -5z"/>
<path d="M1908 1483 c6 -2 18 -2 25 0 6 3 1 5 -13 5 -14 0 -19 -2 -12 -5z"/>
<path d="M2038 1483 c6 -2 18 -2 25 0 6 3 1 5 -13 5 -14 0 -19 -2 -12 -5z"/>
<path d="M2160 1486 c0 -2 9 -6 20 -9 11 -3 18 -1 14 4 -5 9 -34 13 -34 5z"/>
<path d="M2298 1483 c6 -2 18 -2 25 0 6 3 1 5 -13 5 -14 0 -19 -2 -12 -5z"/>
<path d="M2530 1486 c0 -2 15 -6 34 -8 19 -2 32 0 30 4 -5 8 -64 12 -64 4z"/>
<path d="M2678 1483 c12 -2 30 -2 40 0 9 3 -1 5 -23 4 -22 0 -30 -2 -17 -4z"/>
<path d="M2781 1433 c1 -32 4 -45 6 -29 4 24 8 27 29 23 28 -5 48 14 41 40 -4
14 -5 13 -6 -4 -1 -19 -7 -23 -31 -23 -41 0 -43 37 -2 43 25 4 25 4 -5 6 l-33
1 1 -57z"/>
<path d="M2933 1483 c9 -2 25 -2 35 0 9 3 1 5 -18 5 -19 0 -27 -2 -17 -5z"/>
<path d="M3043 1435 c0 -33 2 -45 4 -27 2 18 2 45 0 60 -2 15 -4 0 -4 -33z"/>
<path d="M3190 1486 c0 -2 9 -6 20 -9 11 -3 18 -1 14 4 -5 9 -34 13 -34 5z"/>
<path d="M3312 1483 c13 -3 18 -18 21 -56 l3 -52 2 52 c2 40 6 53 20 56 9 3
-1 5 -23 5 -22 0 -32 -2 -23 -5z"/>
<path d="M3458 1483 c7 -3 16 -2 19 1 4 3 -2 6 -13 5 -11 0 -14 -3 -6 -6z"/>
<path d="M3708 1483 c12 -2 30 -2 40 0 9 3 -1 5 -23 4 -22 0 -30 -2 -17 -4z"/>
<path d="M3838 1483 c6 -2 18 -2 25 0 6 3 1 5 -13 5 -14 0 -19 -2 -12 -5z"/>
<path d="M1244 1455 c1 -15 8 -20 29 -21 24 -1 24 -1 3 3 -14 2 -27 12 -29 21
-3 12 -4 11 -3 -3z"/>
<path d="M1953 1435 c0 -27 2 -38 4 -22 2 15 2 37 0 50 -2 12 -4 0 -4 -28z"/>
<path d="M2274 1455 c1 -15 8 -20 29 -21 24 -1 24 -1 3 3 -14 2 -27 12 -29 21
-3 12 -4 11 -3 -3z"/>
<path d="M3110 1458 c0 -21 0 -21 -22 -2 l-23 19 22 -25 c12 -14 23 -36 26
-50 2 -14 5 -1 6 28 0 28 -1 52 -4 52 -3 0 -5 -10 -5 -22z"/>
<path d="M1883 1435 c0 -22 2 -30 4 -17 2 12 2 30 0 40 -3 9 -5 -1 -4 -23z"/>
<path d="M2013 1435 c0 -22 2 -30 4 -17 2 12 2 30 0 40 -3 9 -5 -1 -4 -23z"/>
<path d="M3814 1450 c1 -9 13 -16 33 -18 23 -2 33 -9 37 -25 3 -18 4 -18 3 3
-2 20 -8 26 -34 28 -17 2 -34 9 -36 15 -2 7 -3 5 -3 -3z"/>
<path d="M2062 1433 c9 -2 19 -14 21 -26 4 -18 5 -17 6 6 1 22 -3 27 -21 26
-16 -1 -18 -3 -6 -6z"/>
<path d="M2142 1410 c0 -19 2 -27 5 -17 2 9 2 25 0 35 -3 9 -5 1 -5 -18z"/>
<path d="M2543 1433 c9 -2 25 -2 35 0 9 3 1 5 -18 5 -19 0 -27 -2 -17 -5z"/>
<path d="M2673 1433 c9 -2 25 -2 35 0 9 3 1 5 -18 5 -19 0 -27 -2 -17 -5z"/>
<path d="M3172 1410 c0 -19 2 -27 5 -17 2 9 2 25 0 35 -3 9 -5 1 -5 -18z"/>
<path d="M3703 1433 c9 -2 25 -2 35 0 9 3 1 5 -18 5 -19 0 -27 -2 -17 -5z"/>
<path d="M2206 1422 c-2 -4 -1 -14 5 -22 7 -12 9 -10 9 8 0 23 -5 28 -14 14z"/>
<path d="M3236 1422 c-2 -4 -1 -14 5 -22 7 -12 9 -10 9 8 0 23 -5 28 -14 14z"/>
<path d="M1243 1400 c2 -8 16 -16 33 -17 25 -1 26 0 4 4 -14 3 -29 10 -33 17
-6 7 -7 6 -4 -4z"/>
<path d="M2273 1400 c2 -8 16 -16 33 -17 25 -1 26 0 4 4 -14 3 -29 10 -33 17
-6 7 -7 6 -4 -4z"/>
<path d="M1509 1387 c5 -5 19 -7 32 -5 20 3 19 5 -9 9 -20 3 -29 2 -23 -4z"/>
<path d="M1665 1390 l-30 -8 27 -1 c15 0 30 4 33 9 3 6 5 9 3 9 -2 -1 -16 -5
-33 -9z"/>
<path d="M1388 1383 c12 -2 30 -2 40 0 9 3 -1 5 -23 4 -22 0 -30 -2 -17 -4z"/>
<path d="M1778 1383 c12 -2 30 -2 40 0 9 3 -1 5 -23 4 -22 0 -30 -2 -17 -4z"/>
<path d="M1908 1383 c6 -2 18 -2 25 0 6 3 1 5 -13 5 -14 0 -19 -2 -12 -5z"/>
<path d="M2038 1383 c6 -2 18 -2 25 0 6 3 1 5 -13 5 -14 0 -19 -2 -12 -5z"/>
<path d="M2678 1383 c12 -2 30 -2 40 0 9 3 -1 5 -23 4 -22 0 -30 -2 -17 -4z"/>
<path d="M2938 1383 c12 -2 30 -2 40 0 9 3 -1 5 -23 4 -22 0 -30 -2 -17 -4z"/>
<path d="M3578 1383 c12 -2 30 -2 40 0 9 3 -1 5 -23 4 -22 0 -30 -2 -17 -4z"/>
<path d="M3708 1383 c12 -2 30 -2 40 0 9 3 -1 5 -23 4 -22 0 -30 -2 -17 -4z"/>
<path d="M3838 1383 c6 -2 18 -2 25 0 6 3 1 5 -13 5 -14 0 -19 -2 -12 -5z"/>
</g>
</svg>
